<?xml version="1.0" encoding="utf-8" standalone="no"?>
<!DOCTYPE svg PUBLIC "-//W3C//DTD SVG 1.1//EN"
  "http://www.w3.org/Graphics/SVG/1.1/DTD/svg11.dtd">
<svg height="345.6pt" version="1.1" viewBox="0 0 460.8 345.6" width="460.8pt" xmlns="http://www.w3.org/2000/svg" xmlns:xlink="http://www.w3.org/1999/xlink">
 <metadata>
  <rdf:RDF xmlns:cc="http://creativecommons.org/ns#" xmlns:dc="http://purl.org/dc/elements/1.1/" xmlns:rdf="http://www.w3.org/1999/02/22-rdf-syntax-ns#">
   <cc:Work>
    <dc:type rdf:resource="http://purl.org/dc/dcmitype/StillImage"/>
    <dc:date>2021-04-14T21:04:14.746300</dc:date>
    <dc:format>image/svg+xml</dc:format>
    <dc:creator>
     <cc:Agent>
      <dc:title>Matplotlib v3.4.1, https://matplotlib.org/</dc:title>
     </cc:Agent>
    </dc:creator>
   </cc:Work>
  </rdf:RDF>
 </metadata>
 <defs>
  <style type="text/css">*{stroke-linecap:butt;stroke-linejoin:round;}</style>
 </defs>
 <g id="figure_1">
  <g id="patch_1">
   <path d="M 0 345.6 
L 460.8 345.6 
L 460.8 0 
L 0 0 
z
" style="fill:#ffffff;"/>
  </g>
  <g id="axes_1">
   <g id="LineCollection_1">
    <path clip-path="url(#p0725715273)" d="M 439.854545 172.8 
L 439.854545 172.8 
" style="fill:none;stroke:#000000;"/>
    <path clip-path="url(#p0725715273)" d="M 439.854545 172.8 
L 415.509072 99.260025 
" style="fill:none;stroke:#000000;"/>
    <path clip-path="url(#p0725715273)" d="M 439.854545 172.8 
L 348.049907 42.567172 
" style="fill:none;stroke:#000000;"/>
    <path clip-path="url(#p0725715273)" d="M 439.854545 172.8 
L 252.931131 15.709091 
" style="fill:none;stroke:#000000;"/>
    <path clip-path="url(#p0725715273)" d="M 439.854545 172.8 
L 151.943319 24.838637 
" style="fill:none;stroke:#000000;"/>
    <path clip-path="url(#p0725715273)" d="M 439.854545 172.8 
L 68.22153 67.864359 
" style="fill:none;stroke:#000000;"/>
    <path clip-path="url(#p0725715273)" d="M 439.854545 172.8 
L 20.945455 134.929565 
" style="fill:none;stroke:#000000;"/>
    <path clip-path="url(#p0725715273)" d="M 439.854545 172.8 
L 20.945455 210.670426 
" style="fill:none;stroke:#000000;"/>
    <path clip-path="url(#p0725715273)" d="M 439.854545 172.8 
L 68.221517 277.735631 
" style="fill:none;stroke:#000000;"/>
    <path clip-path="url(#p0725715273)" d="M 439.854545 172.8 
L 151.943281 320.761354 
" style="fill:none;stroke:#000000;"/>
    <path clip-path="url(#p0725715273)" d="M 439.854545 172.8 
L 252.931144 329.890909 
" style="fill:none;stroke:#000000;"/>
    <path clip-path="url(#p0725715273)" d="M 439.854545 172.8 
L 348.049869 303.032847 
" style="fill:none;stroke:#000000;"/>
    <path clip-path="url(#p0725715273)" d="M 439.854545 172.8 
L 415.509072 246.33998 
" style="fill:none;stroke:#000000;"/>
   </g>
   <g id="PathCollection_1">
    <defs>
     <path d="M 0 8.660254 
C 2.296726 8.660254 4.499694 7.747755 6.123724 6.123724 
C 7.747755 4.499694 8.660254 2.296726 8.660254 0 
C 8.660254 -2.296726 7.747755 -4.499694 6.123724 -6.123724 
C 4.499694 -7.747755 2.296726 -8.660254 0 -8.660254 
C -2.296726 -8.660254 -4.499694 -7.747755 -6.123724 -6.123724 
C -7.747755 -4.499694 -8.660254 -2.296726 -8.660254 0 
C -8.660254 2.296726 -7.747755 4.499694 -6.123724 6.123724 
C -4.499694 7.747755 -2.296726 8.660254 0 8.660254 
z
" id="m3a961e48c1" style="stroke:#0000ff;"/>
    </defs>
    <g clip-path="url(#p0725715273)">
     <use style="fill:#0000ff;stroke:#0000ff;" x="439.854545" xlink:href="#m3a961e48c1" y="172.8"/>
     <use style="fill:#0000ff;stroke:#0000ff;" x="415.509072" xlink:href="#m3a961e48c1" y="99.260025"/>
     <use style="fill:#0000ff;stroke:#0000ff;" x="348.049907" xlink:href="#m3a961e48c1" y="42.567172"/>
     <use style="fill:#0000ff;stroke:#0000ff;" x="252.931131" xlink:href="#m3a961e48c1" y="15.709091"/>
     <use style="fill:#0000ff;stroke:#0000ff;" x="151.943319" xlink:href="#m3a961e48c1" y="24.838637"/>
     <use style="fill:#0000ff;stroke:#0000ff;" x="68.22153" xlink:href="#m3a961e48c1" y="67.864359"/>
     <use style="fill:#0000ff;stroke:#0000ff;" x="20.945455" xlink:href="#m3a961e48c1" y="134.929565"/>
     <use style="fill:#0000ff;stroke:#0000ff;" x="20.945455" xlink:href="#m3a961e48c1" y="210.670426"/>
     <use style="fill:#0000ff;stroke:#0000ff;" x="68.221517" xlink:href="#m3a961e48c1" y="277.735631"/>
     <use style="fill:#0000ff;stroke:#0000ff;" x="151.943281" xlink:href="#m3a961e48c1" y="320.761354"/>
     <use style="fill:#0000ff;stroke:#0000ff;" x="252.931144" xlink:href="#m3a961e48c1" y="329.890909"/>
     <use style="fill:#0000ff;stroke:#0000ff;" x="348.049869" xlink:href="#m3a961e48c1" y="303.032847"/>
     <use style="fill:#0000ff;stroke:#0000ff;" x="415.509072" xlink:href="#m3a961e48c1" y="246.33998"/>
    </g>
   </g>
   <g id="text_1">
    <g clip-path="url(#p0725715273)">
     <!-- __init__ -->
     <g transform="translate(418.366108 175.944375)scale(0.12 -0.12)">
      <defs>
       <path d="M 3263 -1063 
L 3263 -1509 
L -63 -1509 
L -63 -1063 
L 3263 -1063 
z
" id="DejaVuSans-5f" transform="scale(0.015625)"/>
       <path d="M 603 3500 
L 1178 3500 
L 1178 0 
L 603 0 
L 603 3500 
z
M 603 4863 
L 1178 4863 
L 1178 4134 
L 603 4134 
L 603 4863 
z
" id="DejaVuSans-69" transform="scale(0.015625)"/>
       <path d="M 3513 2113 
L 3513 0 
L 2938 0 
L 2938 2094 
Q 2938 2591 2744 2837 
Q 2550 3084 2163 3084 
Q 1697 3084 1428 2787 
Q 1159 2491 1159 1978 
L 1159 0 
L 581 0 
L 581 3500 
L 1159 3500 
L 1159 2956 
Q 1366 3272 1645 3428 
Q 1925 3584 2291 3584 
Q 2894 3584 3203 3211 
Q 3513 2838 3513 2113 
z
" id="DejaVuSans-6e" transform="scale(0.015625)"/>
       <path d="M 1172 4494 
L 1172 3500 
L 2356 3500 
L 2356 3053 
L 1172 3053 
L 1172 1153 
Q 1172 725 1289 603 
Q 1406 481 1766 481 
L 2356 481 
L 2356 0 
L 1766 0 
Q 1100 0 847 248 
Q 594 497 594 1153 
L 594 3053 
L 172 3053 
L 172 3500 
L 594 3500 
L 594 4494 
L 1172 4494 
z
" id="DejaVuSans-74" transform="scale(0.015625)"/>
      </defs>
      <use xlink:href="#DejaVuSans-5f"/>
      <use x="50" xlink:href="#DejaVuSans-5f"/>
      <use x="100" xlink:href="#DejaVuSans-69"/>
      <use x="127.783203" xlink:href="#DejaVuSans-6e"/>
      <use x="191.162109" xlink:href="#DejaVuSans-69"/>
      <use x="218.945312" xlink:href="#DejaVuSans-74"/>
      <use x="258.154297" xlink:href="#DejaVuSans-5f"/>
      <use x="308.154297" xlink:href="#DejaVuSans-5f"/>
     </g>
    </g>
   </g>
   <g id="text_2">
    <g clip-path="url(#p0725715273)">
     <!-- clear -->
     <g transform="translate(400.707822 102.571275)scale(0.12 -0.12)">
      <defs>
       <path d="M 3122 3366 
L 3122 2828 
Q 2878 2963 2633 3030 
Q 2388 3097 2138 3097 
Q 1578 3097 1268 2742 
Q 959 2388 959 1747 
Q 959 1106 1268 751 
Q 1578 397 2138 397 
Q 2388 397 2633 464 
Q 2878 531 3122 666 
L 3122 134 
Q 2881 22 2623 -34 
Q 2366 -91 2075 -91 
Q 1284 -91 818 406 
Q 353 903 353 1747 
Q 353 2603 823 3093 
Q 1294 3584 2113 3584 
Q 2378 3584 2631 3529 
Q 2884 3475 3122 3366 
z
" id="DejaVuSans-63" transform="scale(0.015625)"/>
       <path d="M 603 4863 
L 1178 4863 
L 1178 0 
L 603 0 
L 603 4863 
z
" id="DejaVuSans-6c" transform="scale(0.015625)"/>
       <path d="M 3597 1894 
L 3597 1613 
L 953 1613 
Q 991 1019 1311 708 
Q 1631 397 2203 397 
Q 2534 397 2845 478 
Q 3156 559 3463 722 
L 3463 178 
Q 3153 47 2828 -22 
Q 2503 -91 2169 -91 
Q 1331 -91 842 396 
Q 353 884 353 1716 
Q 353 2575 817 3079 
Q 1281 3584 2069 3584 
Q 2775 3584 3186 3129 
Q 3597 2675 3597 1894 
z
M 3022 2063 
Q 3016 2534 2758 2815 
Q 2500 3097 2075 3097 
Q 1594 3097 1305 2825 
Q 1016 2553 972 2059 
L 3022 2063 
z
" id="DejaVuSans-65" transform="scale(0.015625)"/>
       <path d="M 2194 1759 
Q 1497 1759 1228 1600 
Q 959 1441 959 1056 
Q 959 750 1161 570 
Q 1363 391 1709 391 
Q 2188 391 2477 730 
Q 2766 1069 2766 1631 
L 2766 1759 
L 2194 1759 
z
M 3341 1997 
L 3341 0 
L 2766 0 
L 2766 531 
Q 2569 213 2275 61 
Q 1981 -91 1556 -91 
Q 1019 -91 701 211 
Q 384 513 384 1019 
Q 384 1609 779 1909 
Q 1175 2209 1959 2209 
L 2766 2209 
L 2766 2266 
Q 2766 2663 2505 2880 
Q 2244 3097 1772 3097 
Q 1472 3097 1187 3025 
Q 903 2953 641 2809 
L 641 3341 
Q 956 3463 1253 3523 
Q 1550 3584 1831 3584 
Q 2591 3584 2966 3190 
Q 3341 2797 3341 1997 
z
" id="DejaVuSans-61" transform="scale(0.015625)"/>
       <path d="M 2631 2963 
Q 2534 3019 2420 3045 
Q 2306 3072 2169 3072 
Q 1681 3072 1420 2755 
Q 1159 2438 1159 1844 
L 1159 0 
L 581 0 
L 581 3500 
L 1159 3500 
L 1159 2956 
Q 1341 3275 1631 3429 
Q 1922 3584 2338 3584 
Q 2397 3584 2469 3576 
Q 2541 3569 2628 3553 
L 2631 2963 
z
" id="DejaVuSans-72" transform="scale(0.015625)"/>
      </defs>
      <use xlink:href="#DejaVuSans-63"/>
      <use x="54.980469" xlink:href="#DejaVuSans-6c"/>
      <use x="82.763672" xlink:href="#DejaVuSans-65"/>
      <use x="144.287109" xlink:href="#DejaVuSans-61"/>
      <use x="205.566406" xlink:href="#DejaVuSans-72"/>
     </g>
    </g>
   </g>
   <g id="text_3">
    <g clip-path="url(#p0725715273)">
     <!-- isEmpty -->
     <g transform="translate(323.909282 45.878422)scale(0.12 -0.12)">
      <defs>
       <path d="M 2834 3397 
L 2834 2853 
Q 2591 2978 2328 3040 
Q 2066 3103 1784 3103 
Q 1356 3103 1142 2972 
Q 928 2841 928 2578 
Q 928 2378 1081 2264 
Q 1234 2150 1697 2047 
L 1894 2003 
Q 2506 1872 2764 1633 
Q 3022 1394 3022 966 
Q 3022 478 2636 193 
Q 2250 -91 1575 -91 
Q 1294 -91 989 -36 
Q 684 19 347 128 
L 347 722 
Q 666 556 975 473 
Q 1284 391 1588 391 
Q 1994 391 2212 530 
Q 2431 669 2431 922 
Q 2431 1156 2273 1281 
Q 2116 1406 1581 1522 
L 1381 1569 
Q 847 1681 609 1914 
Q 372 2147 372 2553 
Q 372 3047 722 3315 
Q 1072 3584 1716 3584 
Q 2034 3584 2315 3537 
Q 2597 3491 2834 3397 
z
" id="DejaVuSans-73" transform="scale(0.015625)"/>
       <path d="M 628 4666 
L 3578 4666 
L 3578 4134 
L 1259 4134 
L 1259 2753 
L 3481 2753 
L 3481 2222 
L 1259 2222 
L 1259 531 
L 3634 531 
L 3634 0 
L 628 0 
L 628 4666 
z
" id="DejaVuSans-45" transform="scale(0.015625)"/>
       <path d="M 3328 2828 
Q 3544 3216 3844 3400 
Q 4144 3584 4550 3584 
Q 5097 3584 5394 3201 
Q 5691 2819 5691 2113 
L 5691 0 
L 5113 0 
L 5113 2094 
Q 5113 2597 4934 2840 
Q 4756 3084 4391 3084 
Q 3944 3084 3684 2787 
Q 3425 2491 3425 1978 
L 3425 0 
L 2847 0 
L 2847 2094 
Q 2847 2600 2669 2842 
Q 2491 3084 2119 3084 
Q 1678 3084 1418 2786 
Q 1159 2488 1159 1978 
L 1159 0 
L 581 0 
L 581 3500 
L 1159 3500 
L 1159 2956 
Q 1356 3278 1631 3431 
Q 1906 3584 2284 3584 
Q 2666 3584 2933 3390 
Q 3200 3197 3328 2828 
z
" id="DejaVuSans-6d" transform="scale(0.015625)"/>
       <path d="M 1159 525 
L 1159 -1331 
L 581 -1331 
L 581 3500 
L 1159 3500 
L 1159 2969 
Q 1341 3281 1617 3432 
Q 1894 3584 2278 3584 
Q 2916 3584 3314 3078 
Q 3713 2572 3713 1747 
Q 3713 922 3314 415 
Q 2916 -91 2278 -91 
Q 1894 -91 1617 61 
Q 1341 213 1159 525 
z
M 3116 1747 
Q 3116 2381 2855 2742 
Q 2594 3103 2138 3103 
Q 1681 3103 1420 2742 
Q 1159 2381 1159 1747 
Q 1159 1113 1420 752 
Q 1681 391 2138 391 
Q 2594 391 2855 752 
Q 3116 1113 3116 1747 
z
" id="DejaVuSans-70" transform="scale(0.015625)"/>
       <path d="M 2059 -325 
Q 1816 -950 1584 -1140 
Q 1353 -1331 966 -1331 
L 506 -1331 
L 506 -850 
L 844 -850 
Q 1081 -850 1212 -737 
Q 1344 -625 1503 -206 
L 1606 56 
L 191 3500 
L 800 3500 
L 1894 763 
L 2988 3500 
L 3597 3500 
L 2059 -325 
z
" id="DejaVuSans-79" transform="scale(0.015625)"/>
      </defs>
      <use xlink:href="#DejaVuSans-69"/>
      <use x="27.783203" xlink:href="#DejaVuSans-73"/>
      <use x="79.882812" xlink:href="#DejaVuSans-45"/>
      <use x="143.066406" xlink:href="#DejaVuSans-6d"/>
      <use x="240.478516" xlink:href="#DejaVuSans-70"/>
      <use x="303.955078" xlink:href="#DejaVuSans-74"/>
      <use x="343.164062" xlink:href="#DejaVuSans-79"/>
     </g>
    </g>
   </g>
   <g id="text_4">
    <g clip-path="url(#p0725715273)">
     <!-- getSize -->
     <g transform="translate(230.761131 19.020341)scale(0.12 -0.12)">
      <defs>
       <path d="M 2906 1791 
Q 2906 2416 2648 2759 
Q 2391 3103 1925 3103 
Q 1463 3103 1205 2759 
Q 947 2416 947 1791 
Q 947 1169 1205 825 
Q 1463 481 1925 481 
Q 2391 481 2648 825 
Q 2906 1169 2906 1791 
z
M 3481 434 
Q 3481 -459 3084 -895 
Q 2688 -1331 1869 -1331 
Q 1566 -1331 1297 -1286 
Q 1028 -1241 775 -1147 
L 775 -588 
Q 1028 -725 1275 -790 
Q 1522 -856 1778 -856 
Q 2344 -856 2625 -561 
Q 2906 -266 2906 331 
L 2906 616 
Q 2728 306 2450 153 
Q 2172 0 1784 0 
Q 1141 0 747 490 
Q 353 981 353 1791 
Q 353 2603 747 3093 
Q 1141 3584 1784 3584 
Q 2172 3584 2450 3431 
Q 2728 3278 2906 2969 
L 2906 3500 
L 3481 3500 
L 3481 434 
z
" id="DejaVuSans-67" transform="scale(0.015625)"/>
       <path d="M 3425 4513 
L 3425 3897 
Q 3066 4069 2747 4153 
Q 2428 4238 2131 4238 
Q 1616 4238 1336 4038 
Q 1056 3838 1056 3469 
Q 1056 3159 1242 3001 
Q 1428 2844 1947 2747 
L 2328 2669 
Q 3034 2534 3370 2195 
Q 3706 1856 3706 1288 
Q 3706 609 3251 259 
Q 2797 -91 1919 -91 
Q 1588 -91 1214 -16 
Q 841 59 441 206 
L 441 856 
Q 825 641 1194 531 
Q 1563 422 1919 422 
Q 2459 422 2753 634 
Q 3047 847 3047 1241 
Q 3047 1584 2836 1778 
Q 2625 1972 2144 2069 
L 1759 2144 
Q 1053 2284 737 2584 
Q 422 2884 422 3419 
Q 422 4038 858 4394 
Q 1294 4750 2059 4750 
Q 2388 4750 2728 4690 
Q 3069 4631 3425 4513 
z
" id="DejaVuSans-53" transform="scale(0.015625)"/>
       <path d="M 353 3500 
L 3084 3500 
L 3084 2975 
L 922 459 
L 3084 459 
L 3084 0 
L 275 0 
L 275 525 
L 2438 3041 
L 353 3041 
L 353 3500 
z
" id="DejaVuSans-7a" transform="scale(0.015625)"/>
      </defs>
      <use xlink:href="#DejaVuSans-67"/>
      <use x="63.476562" xlink:href="#DejaVuSans-65"/>
      <use x="125" xlink:href="#DejaVuSans-74"/>
      <use x="164.208984" xlink:href="#DejaVuSans-53"/>
      <use x="227.685547" xlink:href="#DejaVuSans-69"/>
      <use x="255.46875" xlink:href="#DejaVuSans-7a"/>
      <use x="307.958984" xlink:href="#DejaVuSans-65"/>
     </g>
    </g>
   </g>
   <g id="text_5">
    <g clip-path="url(#p0725715273)">
     <!-- getHead -->
     <g transform="translate(126.400194 28.149887)scale(0.12 -0.12)">
      <defs>
       <path d="M 628 4666 
L 1259 4666 
L 1259 2753 
L 3553 2753 
L 3553 4666 
L 4184 4666 
L 4184 0 
L 3553 0 
L 3553 2222 
L 1259 2222 
L 1259 0 
L 628 0 
L 628 4666 
z
" id="DejaVuSans-48" transform="scale(0.015625)"/>
       <path d="M 2906 2969 
L 2906 4863 
L 3481 4863 
L 3481 0 
L 2906 0 
L 2906 525 
Q 2725 213 2448 61 
Q 2172 -91 1784 -91 
Q 1150 -91 751 415 
Q 353 922 353 1747 
Q 353 2572 751 3078 
Q 1150 3584 1784 3584 
Q 2172 3584 2448 3432 
Q 2725 3281 2906 2969 
z
M 947 1747 
Q 947 1113 1208 752 
Q 1469 391 1925 391 
Q 2381 391 2643 752 
Q 2906 1113 2906 1747 
Q 2906 2381 2643 2742 
Q 2381 3103 1925 3103 
Q 1469 3103 1208 2742 
Q 947 2381 947 1747 
z
" id="DejaVuSans-64" transform="scale(0.015625)"/>
      </defs>
      <use xlink:href="#DejaVuSans-67"/>
      <use x="63.476562" xlink:href="#DejaVuSans-65"/>
      <use x="125" xlink:href="#DejaVuSans-74"/>
      <use x="164.208984" xlink:href="#DejaVuSans-48"/>
      <use x="239.404297" xlink:href="#DejaVuSans-65"/>
      <use x="300.927734" xlink:href="#DejaVuSans-61"/>
      <use x="362.207031" xlink:href="#DejaVuSans-64"/>
     </g>
    </g>
   </g>
   <g id="text_6">
    <g clip-path="url(#p0725715273)">
     <!-- getTail -->
     <g transform="translate(48.683092 71.175609)scale(0.12 -0.12)">
      <defs>
       <path d="M -19 4666 
L 3928 4666 
L 3928 4134 
L 2272 4134 
L 2272 0 
L 1638 0 
L 1638 4134 
L -19 4134 
L -19 4666 
z
" id="DejaVuSans-54" transform="scale(0.015625)"/>
      </defs>
      <use xlink:href="#DejaVuSans-67"/>
      <use x="63.476562" xlink:href="#DejaVuSans-65"/>
      <use x="125" xlink:href="#DejaVuSans-74"/>
      <use x="164.208984" xlink:href="#DejaVuSans-54"/>
      <use x="208.792969" xlink:href="#DejaVuSans-61"/>
      <use x="270.072266" xlink:href="#DejaVuSans-69"/>
      <use x="297.855469" xlink:href="#DejaVuSans-6c"/>
     </g>
    </g>
   </g>
   <g id="text_7">
    <g clip-path="url(#p0725715273)">
     <!-- search -->
     <g transform="translate(1.017955 138.240815)scale(0.12 -0.12)">
      <defs>
       <path d="M 3513 2113 
L 3513 0 
L 2938 0 
L 2938 2094 
Q 2938 2591 2744 2837 
Q 2550 3084 2163 3084 
Q 1697 3084 1428 2787 
Q 1159 2491 1159 1978 
L 1159 0 
L 581 0 
L 581 4863 
L 1159 4863 
L 1159 2956 
Q 1366 3272 1645 3428 
Q 1925 3584 2291 3584 
Q 2894 3584 3203 3211 
Q 3513 2838 3513 2113 
z
" id="DejaVuSans-68" transform="scale(0.015625)"/>
      </defs>
      <use xlink:href="#DejaVuSans-73"/>
      <use x="52.099609" xlink:href="#DejaVuSans-65"/>
      <use x="113.623047" xlink:href="#DejaVuSans-61"/>
      <use x="174.902344" xlink:href="#DejaVuSans-72"/>
      <use x="213.765625" xlink:href="#DejaVuSans-63"/>
      <use x="268.746094" xlink:href="#DejaVuSans-68"/>
     </g>
    </g>
   </g>
   <g id="text_8">
    <g clip-path="url(#p0725715273)">
     <!-- add -->
     <g transform="translate(9.650455 213.981676)scale(0.12 -0.12)">
      <use xlink:href="#DejaVuSans-61"/>
      <use x="61.279297" xlink:href="#DejaVuSans-64"/>
      <use x="124.755859" xlink:href="#DejaVuSans-64"/>
     </g>
    </g>
   </g>
   <g id="text_9">
    <g clip-path="url(#p0725715273)">
     <!-- instertTail -->
     <g transform="translate(39.078392 281.046881)scale(0.12 -0.12)">
      <use xlink:href="#DejaVuSans-69"/>
      <use x="27.783203" xlink:href="#DejaVuSans-6e"/>
      <use x="91.162109" xlink:href="#DejaVuSans-73"/>
      <use x="143.261719" xlink:href="#DejaVuSans-74"/>
      <use x="182.470703" xlink:href="#DejaVuSans-65"/>
      <use x="243.994141" xlink:href="#DejaVuSans-72"/>
      <use x="285.107422" xlink:href="#DejaVuSans-74"/>
      <use x="324.316406" xlink:href="#DejaVuSans-54"/>
      <use x="368.900391" xlink:href="#DejaVuSans-61"/>
      <use x="430.179688" xlink:href="#DejaVuSans-69"/>
      <use x="457.962891" xlink:href="#DejaVuSans-6c"/>
     </g>
    </g>
   </g>
   <g id="text_10">
    <g clip-path="url(#p0725715273)">
     <!-- insertHead -->
     <g transform="translate(119.147656 324.072604)scale(0.12 -0.12)">
      <use xlink:href="#DejaVuSans-69"/>
      <use x="27.783203" xlink:href="#DejaVuSans-6e"/>
      <use x="91.162109" xlink:href="#DejaVuSans-73"/>
      <use x="143.261719" xlink:href="#DejaVuSans-65"/>
      <use x="204.785156" xlink:href="#DejaVuSans-72"/>
      <use x="245.898438" xlink:href="#DejaVuSans-74"/>
      <use x="285.107422" xlink:href="#DejaVuSans-48"/>
      <use x="360.302734" xlink:href="#DejaVuSans-65"/>
      <use x="421.826172" xlink:href="#DejaVuSans-61"/>
      <use x="483.105469" xlink:href="#DejaVuSans-64"/>
     </g>
    </g>
   </g>
   <g id="text_11">
    <g clip-path="url(#p0725715273)">
     <!-- insertn -->
     <g transform="translate(232.023019 333.202159)scale(0.12 -0.12)">
      <use xlink:href="#DejaVuSans-69"/>
      <use x="27.783203" xlink:href="#DejaVuSans-6e"/>
      <use x="91.162109" xlink:href="#DejaVuSans-73"/>
      <use x="143.261719" xlink:href="#DejaVuSans-65"/>
      <use x="204.785156" xlink:href="#DejaVuSans-72"/>
      <use x="245.898438" xlink:href="#DejaVuSans-74"/>
      <use x="285.107422" xlink:href="#DejaVuSans-6e"/>
     </g>
    </g>
   </g>
   <g id="text_12">
    <g clip-path="url(#p0725715273)">
     <!-- insert -->
     <g transform="translate(330.944244 306.344097)scale(0.12 -0.12)">
      <use xlink:href="#DejaVuSans-69"/>
      <use x="27.783203" xlink:href="#DejaVuSans-6e"/>
      <use x="91.162109" xlink:href="#DejaVuSans-73"/>
      <use x="143.261719" xlink:href="#DejaVuSans-65"/>
      <use x="204.785156" xlink:href="#DejaVuSans-72"/>
      <use x="245.898438" xlink:href="#DejaVuSans-74"/>
     </g>
    </g>
   </g>
   <g id="text_13">
    <g clip-path="url(#p0725715273)">
     <!-- remove -->
     <g transform="translate(392.726885 249.65123)scale(0.12 -0.12)">
      <defs>
       <path d="M 1959 3097 
Q 1497 3097 1228 2736 
Q 959 2375 959 1747 
Q 959 1119 1226 758 
Q 1494 397 1959 397 
Q 2419 397 2687 759 
Q 2956 1122 2956 1747 
Q 2956 2369 2687 2733 
Q 2419 3097 1959 3097 
z
M 1959 3584 
Q 2709 3584 3137 3096 
Q 3566 2609 3566 1747 
Q 3566 888 3137 398 
Q 2709 -91 1959 -91 
Q 1206 -91 779 398 
Q 353 888 353 1747 
Q 353 2609 779 3096 
Q 1206 3584 1959 3584 
z
" id="DejaVuSans-6f" transform="scale(0.015625)"/>
       <path d="M 191 3500 
L 800 3500 
L 1894 563 
L 2988 3500 
L 3597 3500 
L 2284 0 
L 1503 0 
L 191 3500 
z
" id="DejaVuSans-76" transform="scale(0.015625)"/>
      </defs>
      <use xlink:href="#DejaVuSans-72"/>
      <use x="38.863281" xlink:href="#DejaVuSans-65"/>
      <use x="100.386719" xlink:href="#DejaVuSans-6d"/>
      <use x="197.798828" xlink:href="#DejaVuSans-6f"/>
      <use x="258.980469" xlink:href="#DejaVuSans-76"/>
      <use x="318.160156" xlink:href="#DejaVuSans-65"/>
     </g>
    </g>
   </g>
  </g>
 </g>
 <defs>
  <clipPath id="p0725715273">
   <rect height="345.6" width="460.8" x="0" y="0"/>
  </clipPath>
 </defs>
</svg>
